<svg width="150" height="97" viewBox="0 0 150 97" fill="none" xmlns="http://www.w3.org/2000/svg">
<rect width="150" height="97" rx="8" fill="#B4B4B4"/>
<g clip-path="url(#clip0_4778_14461)">
<path d="M96.7822 21.8857H85.8912V16.4403C85.8912 14.9343 84.6745 13.7175 83.1685 13.7175H66.832C65.326 13.7175 64.1093 14.9343 64.1093 16.4403V21.8857H53.2183C51.7123 21.8857 50.4956 23.1025 50.4956 24.6085V55.92C50.4956 56.6687 51.1082 57.2814 51.857 57.2814H98.1435C98.8923 57.2814 99.5049 56.6687 99.5049 55.92V24.6085C99.5049 23.1025 98.2882 21.8857 96.7822 21.8857ZM64.1093 50.8148C64.1093 51.3764 63.6498 51.8359 63.0883 51.8359H59.6849C59.1233 51.8359 58.6638 51.3764 58.6638 50.8148V47.4114C58.6638 46.8499 59.1233 46.3904 59.6849 46.3904H63.0883C63.6498 46.3904 64.1093 46.8499 64.1093 47.4114V50.8148ZM64.1093 39.9239C64.1093 40.4855 63.6498 40.9449 63.0883 40.9449H59.6849C59.1233 40.9449 58.6638 40.4855 58.6638 39.9239V36.5205C58.6638 35.9589 59.1233 35.4994 59.6849 35.4994H63.0883C63.6498 35.4994 64.1093 35.9589 64.1093 36.5205V39.9239ZM77.723 50.8148C77.723 51.3764 77.2635 51.8359 76.702 51.8359H73.2985C72.737 51.8359 72.2775 51.3764 72.2775 50.8148V47.4114C72.2775 46.8499 72.737 46.3904 73.2985 46.3904H76.702C77.2635 46.3904 77.723 46.8499 77.723 47.4114V50.8148ZM77.723 39.9239C77.723 40.4855 77.2635 40.9449 76.702 40.9449H73.2985C72.737 40.9449 72.2775 40.4855 72.2775 39.9239V36.5205C72.2775 35.9589 72.737 35.4994 73.2985 35.4994H76.702C77.2635 35.4994 77.723 35.9589 77.723 36.5205V39.9239ZM79.0844 25.4593C79.0844 25.7401 78.8546 25.9699 78.5739 25.9699H76.3616V28.1821C76.3616 28.4629 76.1319 28.6926 75.8511 28.6926H74.1494C73.8686 28.6926 73.6389 28.4629 73.6389 28.1821V25.9699H71.4267C71.1459 25.9699 70.9161 25.7401 70.9161 25.4593V23.7576C70.9161 23.4768 71.1459 23.2471 71.4267 23.2471H73.6389V21.0349C73.6389 20.7541 73.8686 20.5244 74.1494 20.5244H75.8511C76.1319 20.5244 76.3616 20.7541 76.3616 21.0349V23.2471H78.5739C78.8546 23.2471 79.0844 23.4768 79.0844 23.7576V25.4593ZM91.3367 50.8148C91.3367 51.3764 90.8772 51.8359 90.3157 51.8359H86.9122C86.3507 51.8359 85.8912 51.3764 85.8912 50.8148V47.4114C85.8912 46.8499 86.3507 46.3904 86.9122 46.3904H90.3157C90.8772 46.3904 91.3367 46.8499 91.3367 47.4114V50.8148ZM91.3367 39.9239C91.3367 40.4855 90.8772 40.9449 90.3157 40.9449H86.9122C86.3507 40.9449 85.8912 40.4855 85.8912 39.9239V36.5205C85.8912 35.9589 86.3507 35.4994 86.9122 35.4994H90.3157C90.8772 35.4994 91.3367 35.9589 91.3367 36.5205V39.9239Z" fill="white"/>
</g>
<path d="M35.04 84V70H36.86L44.04 80.78V70H45.88V84H44.12L36.86 73.02V84H35.04ZM52.7863 84.22C51.9063 84.22 51.1196 84.0133 50.4263 83.6C49.7463 83.1733 49.2063 82.58 48.8063 81.82C48.4196 81.06 48.2263 80.18 48.2263 79.18C48.2263 78.18 48.4196 77.3067 48.8063 76.56C49.2063 75.8 49.7463 75.2133 50.4263 74.8C51.1196 74.3733 51.9063 74.16 52.7863 74.16C53.6663 74.16 54.4463 74.3733 55.1263 74.8C55.8196 75.2133 56.3596 75.8 56.7463 76.56C57.1463 77.3067 57.3463 78.18 57.3463 79.18C57.3463 80.18 57.1463 81.06 56.7463 81.82C56.3596 82.58 55.8196 83.1733 55.1263 83.6C54.4463 84.0133 53.6663 84.22 52.7863 84.22ZM52.7863 82.58C53.5996 82.58 54.2596 82.28 54.7663 81.68C55.2863 81.0667 55.5463 80.2333 55.5463 79.18C55.5463 78.1267 55.2863 77.3 54.7663 76.7C54.2596 76.1 53.5996 75.8 52.7863 75.8C51.9729 75.8 51.3063 76.1 50.7863 76.7C50.2796 77.3 50.0263 78.1267 50.0263 79.18C50.0263 80.2333 50.2796 81.0667 50.7863 81.68C51.3063 82.28 51.9729 82.58 52.7863 82.58ZM65.4334 84V74.4H67.2134V84H65.4334ZM66.3134 72.6C65.9801 72.6 65.6934 72.4867 65.4534 72.26C65.2268 72.02 65.1134 71.7333 65.1134 71.4C65.1134 71.0667 65.2268 70.7867 65.4534 70.56C65.6934 70.32 65.9801 70.2 66.3134 70.2C66.6334 70.2 66.9068 70.32 67.1334 70.56C67.3734 70.7867 67.4934 71.0667 67.4934 71.4C67.4934 71.7333 67.3734 72.02 67.1334 72.26C66.9068 72.4867 66.6334 72.6 66.3134 72.6ZM70.1916 84V74.4H71.8116L71.9116 75.72C72.1249 75.2667 72.4582 74.8933 72.9116 74.6C73.3782 74.3067 73.9116 74.16 74.5116 74.16C75.2049 74.16 75.7916 74.32 76.2716 74.64C76.7516 74.96 77.0982 75.4133 77.3116 76C77.5516 75.4667 77.9116 75.0267 78.3916 74.68C78.8849 74.3333 79.4782 74.16 80.1716 74.16C81.1449 74.16 81.9182 74.48 82.4916 75.12C83.0649 75.76 83.3516 76.6933 83.3516 77.92V84H81.5316V78.28C81.5316 77.44 81.3716 76.82 81.0516 76.42C80.7449 76.0067 80.3182 75.8 79.7716 75.8C79.1182 75.8 78.5982 76.04 78.2116 76.52C77.8382 77 77.6516 77.6133 77.6516 78.36V84H75.8716V78.28C75.8716 77.44 75.7116 76.82 75.3916 76.42C75.0716 76.0067 74.6382 75.8 74.0916 75.8C73.4382 75.8 72.9249 76.0467 72.5516 76.54C72.1782 77.02 71.9916 77.62 71.9916 78.34V84H70.1916ZM88.9114 84.16C87.9381 84.1867 87.1314 83.9667 86.4914 83.5C85.8647 83.02 85.5514 82.3333 85.5514 81.44C85.5514 80.7867 85.7581 80.22 86.1714 79.74C86.5981 79.26 87.1381 78.8867 87.7914 78.62C88.4581 78.34 89.1447 78.2 89.8514 78.2C90.2647 78.1733 90.6447 78.2133 90.9914 78.32C91.3381 78.4133 91.6381 78.5533 91.8914 78.74V77.54C91.8914 76.7933 91.7314 76.3067 91.4114 76.08C91.1047 75.8533 90.6247 75.74 89.9714 75.74C89.4114 75.74 88.8114 75.84 88.1714 76.04C87.5447 76.24 87.0114 76.4933 86.5714 76.8L85.7314 75.4C86.2781 75.0533 86.9247 74.76 87.6714 74.52C88.4314 74.28 89.1981 74.16 89.9714 74.16C91.1981 74.16 92.1114 74.4067 92.7114 74.9C93.3114 75.38 93.6114 76.26 93.6114 77.54V82.36C93.6114 82.6133 93.6781 82.76 93.8114 82.8C93.9447 82.84 94.2447 82.8067 94.7114 82.7V83.86C94.5381 83.9267 94.3181 83.9933 94.0514 84.06C93.7847 84.1267 93.5114 84.16 93.2314 84.16C92.8047 84.16 92.4981 84.08 92.3114 83.92C92.1247 83.76 91.9981 83.4733 91.9314 83.06C91.5714 83.42 91.1181 83.6867 90.5714 83.86C90.0247 84.0333 89.4714 84.1333 88.9114 84.16ZM88.9314 82.58C89.4914 82.5667 89.9981 82.4867 90.4514 82.34C90.9181 82.18 91.2847 81.96 91.5514 81.68C91.8181 81.3867 91.9381 81.04 91.9114 80.64C91.8847 80.2667 91.6914 80 91.3314 79.84C90.9847 79.68 90.5381 79.6133 89.9914 79.64C89.4981 79.6533 89.0447 79.7467 88.6314 79.92C88.2181 80.08 87.8847 80.2933 87.6314 80.56C87.3914 80.8267 87.2714 81.1267 87.2714 81.46C87.2847 81.8333 87.4381 82.12 87.7314 82.32C88.0247 82.5067 88.4247 82.5933 88.9314 82.58ZM100.204 88.14C98.3372 88.14 96.9439 87.4067 96.0239 85.94L97.4639 84.96C98.0639 85.9733 98.9772 86.48 100.204 86.48C101.071 86.48 101.724 86.2 102.164 85.64C102.604 85.0933 102.824 84.24 102.824 83.08V82.02C102.504 82.42 102.111 82.7333 101.644 82.96C101.191 83.1867 100.684 83.3 100.124 83.3C99.2972 83.3 98.5572 83.12 97.9039 82.76C97.2506 82.4 96.7372 81.88 96.3639 81.2C96.0039 80.5067 95.8239 79.68 95.8239 78.72C95.8239 77.7467 96.0039 76.9267 96.3639 76.26C96.7372 75.58 97.2506 75.06 97.9039 74.7C98.5572 74.34 99.2972 74.16 100.124 74.16C100.711 74.16 101.244 74.2867 101.724 74.54C102.217 74.78 102.631 75.12 102.964 75.56L103.024 74.4H104.604V83.08C104.604 84.7333 104.224 85.9867 103.464 86.84C102.717 87.7067 101.631 88.14 100.204 88.14ZM100.244 81.72C101.031 81.72 101.677 81.4467 102.184 80.9C102.691 80.3533 102.944 79.6267 102.944 78.72C102.944 77.8133 102.691 77.0933 102.184 76.56C101.677 76.0267 101.031 75.76 100.244 75.76C99.4706 75.76 98.8372 76.0267 98.3439 76.56C97.8639 77.0933 97.6239 77.8133 97.6239 78.72C97.6239 79.6267 97.8639 80.3533 98.3439 80.9C98.8372 81.4467 99.4706 81.72 100.244 81.72ZM111.381 84.22C110.474 84.22 109.674 84.0267 108.981 83.64C108.288 83.2533 107.748 82.6867 107.361 81.94C106.974 81.18 106.781 80.2667 106.781 79.2C106.781 78.1733 106.974 77.2867 107.361 76.54C107.748 75.78 108.274 75.1933 108.941 74.78C109.621 74.3667 110.401 74.16 111.281 74.16C112.161 74.16 112.908 74.38 113.521 74.82C114.148 75.2467 114.621 75.82 114.941 76.54C115.274 77.26 115.441 78.0467 115.441 78.9V79.38H108.541C108.568 80.4467 108.834 81.26 109.341 81.82C109.861 82.3667 110.548 82.64 111.401 82.64C112.081 82.64 112.641 82.4733 113.081 82.14C113.534 81.8067 113.914 81.3067 114.221 80.64L115.581 81.54C115.128 82.4733 114.548 83.1533 113.841 83.58C113.148 84.0067 112.328 84.22 111.381 84.22ZM108.641 77.94H113.681C113.574 77.2467 113.308 76.6867 112.881 76.26C112.454 75.8333 111.914 75.62 111.261 75.62C110.568 75.62 109.994 75.82 109.541 76.22C109.088 76.6067 108.788 77.18 108.641 77.94Z" fill="white"/>
</svg>
